<svg preserveAspectRatio="none" width="100%" height="100%" overflow="visible" style="display: block;" viewBox="0 0 36.4544 27.6588" fill="none" xmlns="http://www.w3.org/2000/svg">
<g id="Icon">
<path d="M15.3363 3.71437C16.3366 3.28105 17.3601 3.60312 17.9238 4.38213C18.4606 5.12474 18.4954 6.14683 17.9909 7.02089L13.4127 14.9492C13.3515 15.0552 13.3478 15.1473 13.3558 15.1923L17.0148 17.3069C17.9365 17.8391 18.1725 18.8395 18.0466 19.6242C17.9196 20.4137 17.4092 21.2265 16.5262 21.6091L3.0115 27.4645C2.01129 27.8979 0.98908 27.5762 0.425277 26.7974C-0.112157 26.0547 -0.146529 25.0324 0.358185 24.158L4.93567 16.2284C4.99649 16.1227 4.99937 16.0314 4.99136 15.9866L4.9901 15.9841L1.33229 13.8719C0.410629 13.3396 0.175034 12.3375 0.301222 11.5528C0.428398 10.7634 0.940106 9.95222 1.82283 9.56977L15.3363 3.71437Z" fill="var(--fill-0, white)"/>
<path d="M33.4419 0.194327C34.4421 -0.239125 35.4656 0.0825346 36.0294 0.861454C36.5665 1.60403 36.6009 2.62665 36.0964 3.50085L31.519 11.4304C31.458 11.5363 31.454 11.6274 31.462 11.6722L35.1211 13.7869C36.0427 14.3192 36.2782 15.3207 36.1521 16.1054C36.025 16.8947 35.515 17.7065 34.6324 18.089L21.1171 23.9444C20.1168 24.3778 19.0946 24.0557 18.5309 23.2767C17.9937 22.534 17.9591 21.5121 18.4638 20.6379L23.0419 12.7096C23.1031 12.6036 23.1056 12.5115 23.0976 12.4666L23.0963 12.4634L19.4385 10.3519C18.517 9.81965 18.2808 8.81868 18.4068 8.03402C18.5339 7.24452 19.0456 6.43228 19.9284 6.04973L33.4419 0.194327Z" fill="var(--fill-0, white)"/>
</g>
</svg>
