<svg preserveAspectRatio="none" width="100%" height="100%" overflow="visible" style="display: block;" viewBox="0 0 144.959 29.1169" fill="none" xmlns="http://www.w3.org/2000/svg">
<g id="star">
<path id="Icon" d="M14.3834 1.26296C15.1614 0.499276 16.2321 0.432058 17.0379 0.956635C17.8058 1.45686 18.2051 2.39893 18.0481 3.39597L16.6228 12.4403C16.6038 12.561 16.6328 12.6474 16.6564 12.6864L20.8307 13.3464C21.882 13.5123 22.4614 14.3625 22.6254 15.1401C22.7902 15.9224 22.6056 16.8632 21.9192 17.5372L11.4072 27.8545C10.6292 28.6181 9.55951 28.6845 8.75369 28.1598C7.98573 27.6595 7.58654 26.7182 7.74369 25.721L9.17012 16.6777C9.18917 16.5568 9.15845 16.4699 9.13484 16.4308L9.13252 16.4283L4.9605 15.7708C3.90937 15.6049 3.32954 14.7555 3.16542 13.9779C3.00054 13.1954 3.18654 12.2536 3.87317 11.5796L14.3834 1.26296Z" fill="var(--fill-0, white)"/>
<path id="Icon_2" d="M44.1751 1.26296C44.9531 0.499276 46.0238 0.432058 46.8296 0.956635C47.5975 1.45686 47.9968 2.39893 47.8398 3.39597L46.4145 12.4403C46.3955 12.561 46.4245 12.6474 46.4481 12.6864L50.6224 13.3464C51.6737 13.5123 52.2531 14.3625 52.4172 15.1401C52.5819 15.9224 52.3973 16.8632 51.7109 17.5372L41.1989 27.8545C40.4209 28.6181 39.3512 28.6845 38.5454 28.1598C37.7774 27.6595 37.3782 26.7182 37.5354 25.721L38.9618 16.6777C38.9809 16.5568 38.9502 16.4699 38.9265 16.4308L38.9242 16.4283L34.7522 15.7708C33.7011 15.6049 33.1212 14.7555 32.9571 13.9779C32.7922 13.1954 32.9782 12.2536 33.6649 11.5796L44.1751 1.26296Z" fill="var(--fill-0, white)"/>
<path id="Icon_3" d="M73.9668 1.26296C74.7448 0.499276 75.8155 0.432058 76.6213 0.956635C77.3892 1.45686 77.7885 2.39893 77.6315 3.39597L76.2062 12.4403C76.1872 12.561 76.2162 12.6474 76.2398 12.6864L80.4141 13.3464C81.4654 13.5123 82.0448 14.3625 82.2089 15.1401C82.3736 15.9224 82.189 16.8632 81.5026 17.5372L70.9906 27.8545C70.2126 28.6181 69.1429 28.6845 68.3371 28.1598C67.5691 27.6595 67.1699 26.7182 67.3271 25.721L68.7535 16.6777C68.7726 16.5568 68.7419 16.4699 68.7182 16.4308L68.7159 16.4283L64.5439 15.7708C63.4928 15.6049 62.9129 14.7555 62.7488 13.9779C62.5839 13.1954 62.7699 12.2536 63.4566 11.5796L73.9668 1.26296Z" fill="var(--fill-0, white)"/>
<path id="Icon_4" d="M103.759 1.26296C104.537 0.499276 105.607 0.432058 106.413 0.956635C107.181 1.45686 107.58 2.39893 107.423 3.39597L105.998 12.4403C105.979 12.561 106.008 12.6474 106.031 12.6864L110.206 13.3464C111.257 13.5123 111.837 14.3625 112.001 15.1401C112.165 15.9224 111.981 16.8632 111.294 17.5372L100.782 27.8545C100.004 28.6181 98.9346 28.6845 98.1288 28.1598C97.3608 27.6595 96.9616 26.7182 97.1188 25.721L98.5452 16.6777C98.5643 16.5568 98.5336 16.4699 98.5099 16.4308L98.5076 16.4283L94.3356 15.7708C93.2845 15.6049 92.7046 14.7555 92.5405 13.9779C92.3756 13.1954 92.5616 12.2536 93.2483 11.5796L103.759 1.26296Z" fill="var(--fill-0, white)"/>
<path id="Icon_5" d="M133.55 1.26296C134.328 0.499276 135.399 0.432058 136.205 0.956635C136.973 1.45686 137.372 2.39893 137.215 3.39597L135.79 12.4403C135.771 12.561 135.8 12.6474 135.823 12.6864L139.998 13.3464C141.049 13.5123 141.628 14.3625 141.792 15.1401C141.957 15.9224 141.772 16.8632 141.086 17.5372L130.574 27.8545C129.796 28.6181 128.726 28.6845 127.92 28.1598C127.153 27.6595 126.753 26.7182 126.91 25.721L128.337 16.6777C128.356 16.5568 128.325 16.4699 128.302 16.4308L128.299 16.4283L124.127 15.7708C123.076 15.6049 122.496 14.7555 122.332 13.9779C122.167 13.1954 122.353 12.2536 123.04 11.5796L133.55 1.26296Z" fill="var(--fill-0, white)"/>
</g>
</svg>
