<svg preserveAspectRatio="none" width="100%" height="100%" overflow="visible" style="display: block;" viewBox="0 0 85.3751 29.1169" fill="none" xmlns="http://www.w3.org/2000/svg">
<g id="star">
<path id="Icon" d="M14.3834 1.26296C15.1614 0.499276 16.2321 0.432058 17.0379 0.956635C17.8058 1.45686 18.2051 2.39893 18.0481 3.39597L16.6228 12.4403C16.6038 12.561 16.6328 12.6474 16.6564 12.6864L20.8307 13.3464C21.882 13.5123 22.4614 14.3625 22.6254 15.1401C22.7902 15.9224 22.6056 16.8632 21.9192 17.5372L11.4072 27.8545C10.6292 28.6181 9.55951 28.6845 8.75369 28.1598C7.98573 27.6595 7.58654 26.7182 7.74369 25.721L9.17012 16.6777C9.18917 16.5568 9.15845 16.4699 9.13484 16.4308L9.13252 16.4283L4.9605 15.7708C3.90937 15.6049 3.32954 14.7555 3.16542 13.9779C3.00054 13.1954 3.18654 12.2536 3.87317 11.5796L14.3834 1.26296Z" fill="var(--fill-0, white)"/>
<path id="Icon_2" d="M44.1751 1.26296C44.9531 0.499276 46.0238 0.432058 46.8296 0.956635C47.5975 1.45686 47.9968 2.39893 47.8398 3.39597L46.4145 12.4403C46.3955 12.561 46.4245 12.6474 46.4481 12.6864L50.6224 13.3464C51.6737 13.5123 52.2531 14.3625 52.4172 15.1401C52.5819 15.9224 52.3973 16.8632 51.7109 17.5372L41.1989 27.8545C40.4209 28.6181 39.3512 28.6845 38.5454 28.1598C37.7774 27.6595 37.3782 26.7182 37.5354 25.721L38.9618 16.6777C38.9809 16.5568 38.9502 16.4699 38.9265 16.4308L38.9242 16.4283L34.7522 15.7708C33.7011 15.6049 33.1212 14.7555 32.9571 13.9779C32.7922 13.1954 32.9782 12.2536 33.6649 11.5796L44.1751 1.26296Z" fill="var(--fill-0, white)"/>
<path id="Icon_3" d="M73.9668 1.26296C74.7448 0.499276 75.8155 0.432058 76.6213 0.956635C77.3892 1.45686 77.7885 2.39893 77.6315 3.39597L76.2062 12.4403C76.1872 12.561 76.2162 12.6474 76.2398 12.6864L80.4141 13.3464C81.4654 13.5123 82.0448 14.3625 82.2089 15.1401C82.3736 15.9224 82.189 16.8632 81.5026 17.5372L70.9906 27.8545C70.2126 28.6181 69.1429 28.6845 68.3371 28.1598C67.5691 27.6595 67.1699 26.7182 67.3271 25.721L68.7535 16.6777C68.7726 16.5568 68.7419 16.4699 68.7182 16.4308L68.7159 16.4283L64.5439 15.7708C63.4928 15.6049 62.9129 14.7555 62.7488 13.9779C62.5839 13.1954 62.7699 12.2536 63.4566 11.5796L73.9668 1.26296Z" fill="var(--fill-0, white)"/>
</g>
</svg>
