<svg preserveAspectRatio="none" width="100%" height="100%" overflow="visible" style="display: block;" viewBox="0 0 24 24" fill="none" xmlns="http://www.w3.org/2000/svg">
<g id="cards-01">
<path id="Vector" d="M3 11C3 8.17157 3 6.75736 3.87868 5.87868C4.75736 5 6.17157 5 9 5H11C13.8284 5 15.2426 5 16.1213 5.87868C17 6.75736 17 8.17157 17 11V16C17 18.8284 17 20.2426 16.1213 21.1213C15.2426 22 13.8284 22 11 22H9C6.17157 22 4.75736 22 3.87868 21.1213C3 20.2426 3 18.8284 3 16V11Z" fill="var(--fill-0, #FF7F11)" stroke="var(--stroke-0, #FF7F11)" stroke-width="1.5"/>
<path id="Vector_2" d="M16.9244 19C18.0202 18.3874 18.3929 17.0406 19.1383 14.3469L20.1925 10.5375C20.938 7.84378 21.3107 6.49694 20.678 5.4359C20.0453 4.37485 18.6543 4.01397 15.8724 3.2922L13.9052 2.78183C11.1232 2.06006 9.73225 1.69918 8.63642 2.31177C7.85623 2.74792 7.44258 3.55626 7 4.95786" stroke="var(--stroke-0, #FF7F11)" stroke-width="1.5"/>
</g>
</svg>
