<svg width="140" height="48" viewBox="0 0 140 48" fill="none" xmlns="http://www.w3.org/2000/svg">
<path d="M25.4004 13.7295C26.4048 13.2945 27.432 13.6182 27.998 14.4004C28.5371 15.1461 28.5721 16.1721 28.0654 17.0498L23.4688 25.0117C23.4077 25.1177 23.4032 25.2096 23.4111 25.2549L27.0859 27.3789C28.0114 27.9133 28.2485 28.9182 28.1221 29.7061C27.9945 30.4988 27.4813 31.3151 26.5947 31.6992L13.0244 37.5791C12.0201 38.0143 10.9929 37.6913 10.4268 36.9092C9.88717 36.1635 9.8528 35.1367 10.3594 34.2588L14.9561 26.2959C15.0171 26.1897 15.0207 26.0977 15.0127 26.0527L15.0107 26.0508L11.3379 23.9297C10.4124 23.3951 10.176 22.3886 10.3027 21.6006C10.4305 20.8081 10.9439 19.9934 11.8301 19.6094L25.4004 13.7295ZM43.5811 10.1953C44.5855 9.76005 45.6136 10.0831 46.1797 10.8652C46.7188 11.6109 46.7536 12.6379 46.2471 13.5156L41.6504 21.4775C41.5891 21.5838 41.5847 21.6757 41.5928 21.7207L45.2676 23.8438C46.1929 24.3782 46.4292 25.384 46.3027 26.1719C46.1751 26.9643 45.6633 27.7798 44.7773 28.1641L31.2051 34.0439C30.2007 34.479 29.1745 34.1553 28.6084 33.373C28.0692 32.6273 28.0343 31.6014 28.541 30.7236L33.1377 22.7627C33.199 22.6565 33.2023 22.5638 33.1943 22.5186L33.1924 22.5146L29.5195 20.3945C28.5944 19.8601 28.3569 18.8552 28.4834 18.0674C28.611 17.2746 29.1252 16.4593 30.0117 16.0752L43.5811 10.1953ZM96.3975 20.9326C99.2583 20.9328 101.579 23.3336 101.579 26.3145C101.579 29.2754 99.2583 31.6971 96.3975 31.6973H94.2363C94.0603 31.6973 93.8863 31.6879 93.7148 31.6699C93.2048 31.6163 93.0835 30.9819 93.4209 30.5957C93.7661 30.2006 94.0646 29.7605 94.3066 29.2852C94.3722 29.1567 94.5114 29.0816 94.6553 29.0918C94.9874 29.1152 95.3255 29.0957 95.6562 29.0957C97.1367 29.0957 98.3377 27.8549 98.3379 26.3145C98.3377 24.774 97.1367 23.5137 95.6562 23.5137C95.3243 23.5137 94.984 23.4924 94.6504 23.5166C94.5061 23.5271 94.3666 23.453 94.3008 23.3242C94.0616 22.8561 93.7679 22.4226 93.4287 22.0332C93.0913 21.6456 93.2143 21.0109 93.7256 20.959C93.8936 20.9419 94.064 20.9326 94.2363 20.9326H96.3975ZM124.818 20.9326C127.679 20.9328 130 23.3336 130 26.3145C130 29.2755 127.679 31.6971 124.818 31.6973H122.657C119.796 31.6973 117.476 29.2756 117.476 26.3145C117.476 23.3335 119.796 20.9326 122.657 20.9326H124.818ZM88.6553 20.9326C91.5162 20.9328 93.8378 23.3335 93.8379 26.3145C93.8379 29.2755 91.5163 31.6961 88.6553 31.6963H86.4951C83.634 31.6963 81.3125 29.2756 81.3125 26.3145C81.3126 23.3334 83.6341 20.9326 86.4951 20.9326H88.6553ZM76.0322 17.3516C78.2329 17.3516 80.034 19.1519 80.0342 21.3525V31.4971C78.3435 31.4971 76.9727 30.1262 76.9727 28.4355V21.5127C76.9725 20.8926 76.4922 20.3926 75.8721 20.3926C75.352 20.3926 74.8922 20.7725 74.792 21.2725L73.1758 26.2129C72.8864 27.0976 72.0608 27.6963 71.1299 27.6963C70.1992 27.6961 69.3744 27.0975 69.085 26.2129L67.4688 21.2725C67.3486 20.7726 66.9086 20.3927 66.3887 20.3926C65.7685 20.3926 65.2677 20.8926 65.2676 21.5127V31.4971C63.5882 31.4969 62.2267 30.1354 62.2266 28.4561V21.3525C62.2268 19.1518 64.0078 17.3516 66.2285 17.3516C68.0892 17.3517 69.7097 18.652 70.1299 20.4727L71.0488 24.3135C71.0693 24.3986 71.1904 24.3985 71.2109 24.3135L72.1309 20.4727C72.551 18.6519 74.1715 17.3516 76.0322 17.3516ZM107.189 21.1133H111.491C111.491 22.4942 110.371 23.6141 108.99 23.6143H107.189V26.4346C107.189 27.835 108.35 28.9754 109.75 28.9756H111.491V31.4971H109.33C106.469 31.4971 104.148 29.1756 104.148 26.3145V23.6143H102.207V21.1133H104.148V17.5518H107.189V21.1133ZM116.034 31.4971H112.993V24.1543C112.993 22.4747 114.355 21.1133 116.034 21.1133V31.4971ZM87.2354 23.5137C85.7548 23.5137 84.5538 24.7739 84.5537 26.3145C84.5537 27.8551 85.7548 29.0957 87.2354 29.0957H88.0957C89.5761 29.0955 90.7969 27.8549 90.7969 26.3145C90.7968 24.7741 89.576 23.5139 88.0957 23.5137H87.2354ZM123.218 23.5137C121.737 23.5137 120.517 24.774 120.517 26.3145C120.517 27.8551 121.737 29.0957 123.218 29.0957H124.078C125.559 29.0955 126.759 27.8549 126.759 26.3145C126.759 24.7741 125.558 23.5139 124.078 23.5137H123.218ZM115.846 16.1201C116.067 16.0243 116.293 16.0954 116.418 16.2676C116.537 16.4317 116.544 16.6574 116.433 16.8506L115.421 18.6045C115.408 18.6276 115.407 18.6472 115.408 18.6572L116.217 19.125C116.421 19.2427 116.473 19.4642 116.445 19.6377C116.417 19.8121 116.304 19.9915 116.109 20.0762L113.121 21.3711C112.9 21.4669 112.673 21.3958 112.549 21.2236C112.43 21.0594 112.423 20.8329 112.534 20.6396L113.546 18.8867C113.553 18.8752 113.557 18.8647 113.559 18.8555V18.832L112.75 18.3652C112.546 18.2476 112.494 18.027 112.521 17.8535C112.55 17.679 112.662 17.4987 112.857 17.4141L115.846 16.1201Z" fill="#1E1E1E"/>
</svg>
