<svg preserveAspectRatio="none" width="100%" height="100%" overflow="visible" style="display: block;" viewBox="0 0 251.57 251.57" fill="none" xmlns="http://www.w3.org/2000/svg">
<path id="vector" d="M118.158 2.73559C122.588 -0.911862 128.981 -0.911863 133.412 2.73559L135.365 4.344C138.903 7.25645 143.791 7.89991 147.962 6.00233L150.265 4.95439C155.489 2.57792 161.664 4.23252 164.999 8.90239L166.47 10.9617C169.134 14.6905 173.688 16.577 178.208 15.8236L180.704 15.4076C186.365 14.464 191.901 17.6605 193.915 23.0345L194.802 25.4043C196.41 29.6954 200.321 32.6965 204.882 33.1386L207.401 33.3828C213.113 33.9365 217.633 38.457 218.187 44.1689L218.431 46.6878C218.873 51.2487 221.874 55.1597 226.165 56.7673L228.535 57.655C233.909 59.6683 237.105 65.2047 236.162 70.8653L235.746 73.3615C234.993 77.8815 236.879 82.436 240.608 85.0993L242.667 86.5702C247.337 89.9057 248.992 96.0808 246.615 101.304L245.567 103.608C243.67 107.779 244.313 112.666 247.226 116.204L248.834 118.158C252.481 122.588 252.481 128.981 248.834 133.412L247.226 135.365C244.313 138.903 243.67 143.791 245.567 147.962L246.615 150.265C248.992 155.489 247.337 161.664 242.667 164.999L240.608 166.47C236.879 169.134 234.993 173.688 235.746 178.208L236.162 180.704C237.105 186.365 233.909 191.901 228.535 193.915L226.165 194.802C221.874 196.41 218.873 200.321 218.431 204.882L218.187 207.401C217.633 213.113 213.113 217.633 207.401 218.187L204.882 218.431C200.321 218.873 196.41 221.874 194.802 226.165L193.915 228.535C191.901 233.909 186.365 237.105 180.704 236.162L178.208 235.746C173.688 234.993 169.134 236.879 166.47 240.608L164.999 242.667C161.664 247.337 155.489 248.992 150.265 246.615L147.962 245.567C143.791 243.67 138.903 244.313 135.365 247.226L133.412 248.834C128.981 252.481 122.588 252.481 118.158 248.834L116.204 247.226C112.666 244.313 107.779 243.67 103.608 245.567L101.304 246.615C96.0808 248.992 89.9057 247.337 86.5702 242.667L85.0993 240.608C82.436 236.879 77.8815 234.993 73.3615 235.746L70.8653 236.162C65.2047 237.105 59.6683 233.909 57.655 228.535L56.7673 226.165C55.1597 221.874 51.2487 218.873 46.6878 218.431L44.1689 218.187C38.457 217.633 33.9365 213.113 33.3828 207.401L33.1386 204.882C32.6965 200.321 29.6954 196.41 25.4043 194.802L23.0345 193.915C17.6605 191.901 14.464 186.365 15.4076 180.704L15.8236 178.208C16.577 173.688 14.6905 169.134 10.9617 166.47L8.90239 164.999C4.23252 161.664 2.57792 155.489 4.95438 150.265L6.00233 147.962C7.89991 143.791 7.25645 138.903 4.344 135.365L2.73559 133.412C-0.911861 128.981 -0.911863 122.588 2.73559 118.158L4.344 116.204C7.25645 112.666 7.89991 107.779 6.00233 103.608L4.95438 101.304C2.57792 96.0808 4.23252 89.9057 8.90239 86.5702L10.9617 85.0994C14.6905 82.436 16.577 77.8815 15.8236 73.3615L15.4076 70.8653C14.464 65.2047 17.6605 59.6683 23.0345 57.655L25.4043 56.7673C29.6954 55.1597 32.6965 51.2487 33.1386 46.6878L33.3828 44.1689C33.9365 38.457 38.457 33.9365 44.1689 33.3828L46.6878 33.1386C51.2487 32.6965 55.1597 29.6954 56.7673 25.4043L57.655 23.0345C59.6683 17.6605 65.2047 14.464 70.8653 15.4076L73.3615 15.8236C77.8815 16.577 82.436 14.6905 85.0993 10.9617L86.5702 8.90239C89.9057 4.23252 96.0808 2.57792 101.304 4.95438L103.608 6.00233C107.779 7.89991 112.666 7.25645 116.204 4.344L118.158 2.73559Z" fill="var(--fill-0, white)"/>
</svg>
