<svg preserveAspectRatio="none" width="100%" height="100%" overflow="visible" style="display: block;" viewBox="0 0 531.17 531.17" fill="none" xmlns="http://www.w3.org/2000/svg">
<path id="vector" d="M257.958 2.73559C262.389 -0.911862 268.782 -0.911862 273.212 2.73559L291.771 18.0144C295.309 20.9269 300.196 21.5703 304.367 19.6727L326.248 9.71796C331.472 7.34149 337.647 8.9961 340.983 13.666L354.955 33.2276C357.618 36.9564 362.173 38.843 366.693 38.0896L390.405 34.1373C396.065 33.1937 401.602 36.3902 403.615 41.7642L412.048 64.2756C413.656 68.5667 417.567 71.5677 422.128 72.0099L446.055 74.3293C451.767 74.8831 456.287 79.4035 456.841 85.1155L459.16 109.042C459.602 113.603 462.603 117.514 466.895 119.122L489.406 127.555C494.78 129.568 497.976 135.105 497.033 140.765L493.081 164.477C492.327 168.997 494.214 173.552 497.943 176.215L517.504 190.188C522.174 193.523 523.829 199.698 521.452 204.922L511.497 226.803C509.6 230.974 510.243 235.861 513.156 239.399L528.435 257.958C532.082 262.389 532.082 268.782 528.435 273.212L513.156 291.771C510.243 295.309 509.6 300.196 511.497 304.367L521.452 326.248C523.829 331.472 522.174 337.647 517.504 340.983L497.943 354.955C494.214 357.618 492.327 362.173 493.081 366.693L497.033 390.405C497.976 396.065 494.78 401.602 489.406 403.615L466.895 412.048C462.603 413.656 459.602 417.567 459.16 422.128L456.841 446.055C456.287 451.767 451.767 456.287 446.055 456.841L422.128 459.16C417.567 459.602 413.656 462.603 412.048 466.895L403.615 489.406C401.602 494.78 396.065 497.976 390.405 497.033L366.693 493.081C362.173 492.327 357.618 494.214 354.955 497.943L340.983 517.504C337.647 522.174 331.472 523.829 326.248 521.452L304.367 511.497C300.196 509.6 295.309 510.243 291.771 513.156L273.212 528.435C268.782 532.082 262.389 532.082 257.958 528.435L239.399 513.156C235.861 510.243 230.974 509.6 226.803 511.497L204.922 521.452C199.698 523.829 193.523 522.174 190.188 517.504L176.215 497.943C173.552 494.214 168.997 492.327 164.477 493.081L140.765 497.033C135.105 497.976 129.568 494.78 127.555 489.406L119.122 466.895C117.514 462.603 113.603 459.602 109.042 459.16L85.1155 456.841C79.4035 456.287 74.8831 451.767 74.3293 446.055L72.0099 422.128C71.5677 417.567 68.5667 413.656 64.2756 412.048L41.7642 403.615C36.3902 401.602 33.1937 396.065 34.1373 390.405L38.0896 366.693C38.843 362.173 36.9564 357.618 33.2276 354.955L13.666 340.983C8.99609 337.647 7.34149 331.472 9.71796 326.248L19.6727 304.367C21.5703 300.196 20.9269 295.309 18.0144 291.771L2.73559 273.212C-0.911862 268.782 -0.911862 262.389 2.73559 257.958L18.0144 239.399C20.9269 235.861 21.5703 230.974 19.6727 226.803L9.71796 204.922C7.34149 199.698 8.99609 193.523 13.666 190.188L33.2276 176.215C36.9564 173.552 38.843 168.997 38.0896 164.477L34.1373 140.765C33.1937 135.105 36.3902 129.568 41.7642 127.555L64.2756 119.122C68.5667 117.514 71.5677 113.603 72.0099 109.042L74.3293 85.1155C74.8831 79.4035 79.4035 74.8831 85.1155 74.3293L109.042 72.0099C113.603 71.5677 117.514 68.5667 119.122 64.2756L127.555 41.7642C129.568 36.3902 135.105 33.1937 140.765 34.1373L164.477 38.0896C168.997 38.843 173.552 36.9564 176.215 33.2276L190.188 13.666C193.523 8.9961 199.698 7.34149 204.922 9.71796L226.803 19.6727C230.974 21.5703 235.861 20.9269 239.399 18.0144L257.958 2.73559Z" fill="url(#paint0_radial_0_5)" fill-opacity="0.24"/>
<defs>
<radialGradient id="paint0_radial_0_5" cx="0" cy="0" r="1" gradientUnits="userSpaceOnUse" gradientTransform="translate(265.585 265.585) rotate(90) scale(269.128)">
<stop stop-color="white" stop-opacity="0"/>
<stop offset="1" stop-color="white"/>
</radialGradient>
</defs>
</svg>
