<svg preserveAspectRatio="none" width="100%" height="100%" overflow="visible" style="display: block;" viewBox="0 0 369.869 369.869" fill="none" xmlns="http://www.w3.org/2000/svg">
<path id="vector" d="M177.307 2.73559C181.738 -0.91186 188.131 -0.911865 192.561 2.73559L201.541 10.128C205.079 13.0404 209.966 13.6839 214.137 11.7863L224.724 6.96986C229.947 4.5934 236.123 6.248 239.458 10.9179L246.218 20.3824C248.882 24.1113 253.436 25.9978 257.956 25.2444L269.429 23.3321C275.089 22.3886 280.626 25.585 282.639 30.9591L286.719 41.8508C288.327 46.1419 292.238 49.1429 296.799 49.5851L308.375 50.7073C314.087 51.261 318.608 55.7815 319.162 61.4935L320.284 73.0701C320.726 77.6311 323.727 81.5421 328.018 83.1496L338.91 87.2299C344.284 89.2431 347.48 94.7795 346.537 100.44L344.624 111.913C343.871 116.433 345.758 120.987 349.486 123.651L358.951 130.411C363.621 133.746 365.275 139.921 362.899 145.145L358.083 155.732C356.185 159.903 356.828 164.79 359.741 168.328L367.133 177.307C370.781 181.738 370.781 188.131 367.133 192.561L359.741 201.541C356.828 205.079 356.185 209.966 358.083 214.137L362.899 224.724C365.275 229.947 363.621 236.123 358.951 239.458L349.486 246.218C345.758 248.882 343.871 253.436 344.624 257.956L346.537 269.429C347.48 275.089 344.284 280.626 338.91 282.639L328.018 286.719C323.727 288.327 320.726 292.238 320.284 296.799L319.162 308.375C318.608 314.087 314.087 318.608 308.375 319.162L296.799 320.284C292.238 320.726 288.327 323.727 286.719 328.018L282.639 338.91C280.626 344.284 275.089 347.48 269.429 346.537L257.956 344.624C253.436 343.871 248.882 345.758 246.218 349.486L239.458 358.951C236.123 363.621 229.947 365.275 224.724 362.899L214.137 358.083C209.966 356.185 205.079 356.828 201.541 359.741L192.561 367.133C188.131 370.781 181.738 370.781 177.307 367.133L168.328 359.741C164.79 356.828 159.903 356.185 155.732 358.083L145.145 362.899C139.921 365.275 133.746 363.621 130.411 358.951L123.651 349.486C120.987 345.758 116.433 343.871 111.913 344.624L100.44 346.537C94.7795 347.48 89.2431 344.284 87.2299 338.91L83.1496 328.018C81.5421 323.727 77.6311 320.726 73.0701 320.284L61.4935 319.162C55.7815 318.608 51.261 314.087 50.7073 308.375L49.5851 296.799C49.1429 292.238 46.1419 288.327 41.8508 286.719L30.9591 282.639C25.585 280.626 22.3886 275.089 23.3321 269.429L25.2444 257.956C25.9978 253.436 24.1113 248.882 20.3824 246.218L10.9179 239.458C6.248 236.123 4.5934 229.947 6.96986 224.724L11.7863 214.137C13.6839 209.966 13.0404 205.079 10.128 201.541L2.73559 192.561C-0.91186 188.131 -0.911865 181.738 2.73559 177.307L10.128 168.328C13.0404 164.79 13.6839 159.903 11.7863 155.732L6.96986 145.145C4.5934 139.921 6.248 133.746 10.9179 130.411L20.3824 123.651C24.1113 120.987 25.9978 116.433 25.2444 111.913L23.3321 100.44C22.3886 94.7795 25.585 89.2431 30.9591 87.2299L41.8508 83.1496C46.1419 81.5421 49.1429 77.6311 49.5851 73.0701L50.7073 61.4935C51.261 55.7815 55.7815 51.261 61.4935 50.7073L73.0701 49.5851C77.6311 49.1429 81.5421 46.1419 83.1496 41.8508L87.2299 30.9591C89.2431 25.585 94.7795 22.3886 100.44 23.3321L111.913 25.2444C116.433 25.9978 120.987 24.1113 123.651 20.3824L130.411 10.9179C133.746 6.248 139.921 4.5934 145.145 6.96986L155.732 11.7863C159.903 13.6839 164.79 13.0404 168.328 10.128L177.307 2.73559Z" fill="url(#paint0_radial_0_4)" fill-opacity="0.24"/>
<defs>
<radialGradient id="paint0_radial_0_4" cx="0" cy="0" r="1" gradientUnits="userSpaceOnUse" gradientTransform="translate(184.934 184.934) rotate(90) scale(188.478)">
<stop stop-color="white" stop-opacity="0"/>
<stop offset="1" stop-color="white"/>
</radialGradient>
</defs>
</svg>
