<svg preserveAspectRatio="none" width="100%" height="100%" overflow="visible" style="display: block;" viewBox="0 0 438.398 526.98" fill="none" xmlns="http://www.w3.org/2000/svg">
<g id="bg-pattern">
<path d="M92.216 383.003C98.2306 380.398 104.385 382.335 107.775 387.019C111.003 391.484 111.213 397.63 108.179 402.886L80.6503 450.558C80.2823 451.195 80.2596 451.749 80.3078 452.02L102.31 464.735C107.852 467.935 109.271 473.95 108.514 478.668C107.75 483.415 104.681 488.303 99.372 490.604L18.1086 525.812C12.0944 528.418 5.94771 526.484 2.55759 521.8C-0.673913 517.335 -0.88141 511.187 2.15339 505.929L29.6781 458.25C30.0438 457.614 30.0612 457.065 30.0131 456.796L30.0055 456.781L8.01116 444.08C2.46948 440.879 1.05224 434.854 1.81089 430.136C2.57558 425.39 5.65263 420.511 10.9602 418.211L92.216 383.003Z" fill="var(--fill-0, white)" fill-opacity="0.12"/>
<path d="M201.085 361.837C207.099 359.231 213.253 361.166 216.643 365.849C219.873 370.314 220.08 376.463 217.046 381.72L189.523 429.399C189.156 430.036 189.132 430.584 189.18 430.854L211.182 443.569C216.724 446.77 218.139 452.792 217.381 457.51C216.617 462.256 213.55 467.138 208.243 469.438L126.976 504.646C120.962 507.252 114.815 505.315 111.425 500.631C108.196 496.165 107.988 490.02 111.022 484.764L138.551 437.092C138.918 436.455 138.934 435.9 138.886 435.63L138.877 435.611L116.884 422.915C111.343 419.714 109.922 413.696 110.68 408.978C111.444 404.231 114.52 399.346 119.829 397.046L201.085 361.837Z" fill="var(--fill-0, white)" fill-opacity="0.12"/>
<path d="M311.415 340.552C317.43 337.946 323.584 339.883 326.974 344.567C330.202 349.033 330.412 355.178 327.378 360.433L299.85 408.106C299.482 408.744 299.459 409.298 299.507 409.568L321.509 422.284C327.051 425.484 328.47 431.499 327.713 436.217C326.95 440.964 323.88 445.851 318.571 448.151L237.308 483.36C231.294 485.966 225.147 484.032 221.757 479.349C218.525 474.883 218.318 468.736 221.353 463.478L248.877 415.798C249.243 415.162 249.26 414.614 249.212 414.344L249.205 414.329L227.211 401.629C221.669 398.428 220.251 392.402 221.01 387.684C221.775 382.937 224.852 378.06 230.16 375.76L311.415 340.552Z" fill="var(--fill-0, white)" fill-opacity="0.12"/>
<path d="M420.284 319.386C426.299 316.78 432.453 318.714 435.843 323.398C439.072 327.863 439.279 334.011 436.246 339.268L408.722 386.948C408.355 387.585 408.331 388.133 408.38 388.403L430.38 401.118C435.922 404.319 437.339 410.34 436.581 415.058C435.816 419.804 432.749 424.685 427.443 426.986L346.175 462.194C340.161 464.799 334.014 462.864 330.624 458.18C327.395 453.714 327.187 447.569 330.221 442.312L357.749 394.639C358.116 394.002 358.132 393.449 358.084 393.179L358.076 393.16L336.083 380.463C330.542 377.263 329.121 371.243 329.879 366.525C330.643 361.778 333.72 356.895 339.028 354.594L420.284 319.386Z" fill="var(--fill-0, white)" fill-opacity="0.12"/>
<path d="M92.216 223.895C98.2308 221.289 104.385 223.226 107.775 227.911C111.002 232.376 111.212 238.521 108.179 243.776L80.6503 291.45C80.2826 292.087 80.2597 292.64 80.3078 292.91L102.31 305.627C107.852 308.827 109.271 314.842 108.514 319.56C107.75 324.307 104.681 329.194 99.372 331.494L18.1086 366.703C12.0946 369.309 5.94777 367.375 2.55759 362.692C-0.673904 358.227 -0.881212 352.079 2.15339 346.821L29.6781 299.141C30.0435 298.505 30.0611 297.957 30.0131 297.688L30.0055 297.673L8.01116 284.972C2.46925 281.771 1.05213 275.745 1.81089 271.027C2.57561 266.28 5.65286 261.403 10.9602 259.103L92.216 223.895Z" fill="var(--fill-0, white)" fill-opacity="0.12"/>
<path d="M201.085 202.729C207.099 200.123 213.253 202.056 216.643 206.74C219.873 211.205 220.08 217.354 217.046 222.611L189.523 270.291C189.156 270.928 189.132 271.475 189.18 271.744L211.182 284.461C216.723 287.662 218.139 293.684 217.381 298.402C216.617 303.148 213.55 308.028 208.243 310.329L126.976 345.537C120.962 348.142 114.815 346.207 111.425 341.523C108.195 337.057 107.988 330.912 111.022 325.656L138.551 277.982C138.918 277.346 138.934 276.792 138.886 276.522L138.877 276.503L116.884 263.806C111.343 260.606 109.922 254.587 110.68 249.868C111.444 245.121 114.521 240.238 119.829 237.938L201.085 202.729Z" fill="var(--fill-0, white)" fill-opacity="0.12"/>
<path d="M311.415 181.443C317.43 178.837 323.584 180.774 326.974 185.458C330.202 189.923 330.412 196.07 327.378 201.325L299.85 248.997C299.482 249.635 299.459 250.189 299.507 250.459L321.509 263.174C327.051 266.374 328.47 272.389 327.713 277.107C326.95 281.855 323.88 286.743 318.571 289.043L237.308 324.252C231.294 326.858 225.147 324.923 221.757 320.24C218.525 315.774 218.318 309.627 221.353 304.369L248.877 256.69C249.243 256.054 249.261 255.505 249.212 255.235L249.205 255.22L227.211 242.52C221.669 239.319 220.252 233.294 221.01 228.575C221.775 223.829 224.852 218.951 230.16 216.651L311.415 181.443Z" fill="var(--fill-0, white)" fill-opacity="0.12"/>
<path d="M420.284 160.277C426.299 157.671 432.453 159.605 435.843 164.289C439.072 168.754 439.279 174.903 436.246 180.159L408.722 227.839C408.355 228.475 408.331 229.024 408.38 229.293L430.38 242.009C435.922 245.209 437.339 251.231 436.581 255.949C435.816 260.695 432.749 265.577 427.443 267.877L346.175 303.086C340.161 305.691 334.014 303.754 330.624 299.07C327.395 294.605 327.187 288.46 330.221 283.203L357.749 235.531C358.117 234.894 358.132 234.34 358.084 234.069L358.076 234.05L336.083 221.354C330.542 218.154 329.121 212.135 329.879 207.417C330.643 202.67 333.72 197.785 339.028 195.485L420.284 160.277Z" fill="var(--fill-0, white)" fill-opacity="0.12"/>
<path d="M92.216 64.7857C98.2307 62.1802 104.385 64.1172 107.775 68.8013C111.003 73.2666 111.213 79.4127 108.179 84.6684L80.6503 132.34C80.2823 132.978 80.2596 133.532 80.3078 133.802L102.31 146.518C107.852 149.717 109.271 155.732 108.514 160.45C107.75 165.198 104.681 170.086 99.372 172.386L18.1086 207.595C12.0944 210.201 5.94771 208.266 2.55759 203.583C-0.673978 199.117 -0.881431 192.97 2.15339 187.712L29.6781 140.033C30.0438 139.397 30.0612 138.848 30.0131 138.578L30.0055 138.563L8.01116 125.863C2.46948 122.662 1.05231 116.637 1.81089 111.919C2.57558 107.172 5.65267 102.294 10.9602 99.994L92.216 64.7857Z" fill="var(--fill-0, white)" fill-opacity="0.12"/>
<path d="M201.085 43.6199C207.099 41.0137 213.253 42.9481 216.643 47.6317C219.873 52.0968 220.08 58.2461 217.046 63.5026L189.523 111.182C189.156 111.819 189.132 112.367 189.18 112.636L211.182 125.352C216.724 128.552 218.139 134.574 217.381 139.292C216.617 144.038 213.55 148.92 208.243 151.221L126.976 186.429C120.962 189.034 114.815 187.098 111.425 182.413C108.195 177.948 107.988 171.803 111.022 166.546L138.551 118.874C138.919 118.237 138.934 117.683 138.886 117.412L138.877 117.394L116.884 104.697C111.343 101.497 109.922 95.4784 110.68 90.7604C111.444 86.0131 114.52 81.1285 119.829 78.8282L201.085 43.6199Z" fill="var(--fill-0, white)" fill-opacity="0.12"/>
<path d="M311.415 22.3345C317.43 19.729 323.584 21.6649 326.974 26.3488C330.202 30.814 330.412 36.9603 327.378 42.2159L299.85 89.889C299.482 90.5262 299.459 91.0795 299.507 91.3497L321.509 104.065C327.051 107.265 328.47 113.281 327.713 117.999C326.95 122.747 323.88 127.633 318.571 129.934L237.308 165.142C231.294 167.748 225.147 165.814 221.757 161.13C218.526 156.665 218.318 150.518 221.353 145.261L248.877 97.5802C249.243 96.9444 249.261 96.3952 249.212 96.1258L249.205 96.1107L227.211 83.4104C221.669 80.2094 220.252 74.1846 221.01 69.4661C221.775 64.7198 224.852 59.8426 230.16 57.5428L311.415 22.3345Z" fill="var(--fill-0, white)" fill-opacity="0.12"/>
<path d="M420.284 1.16866C426.299 -1.43766 432.453 0.495625 435.843 5.1792C439.073 9.64428 439.279 15.7936 436.246 21.0501L408.722 68.7308C408.356 69.3671 408.332 69.9141 408.38 70.1839L430.38 82.8992C435.922 86.0998 437.339 92.123 436.581 96.841C435.816 101.587 432.749 106.468 427.443 108.768L346.175 143.976C340.161 146.582 334.014 144.645 330.624 139.961C327.395 135.495 327.187 129.351 330.221 124.095L357.749 76.4219C358.117 75.7846 358.132 75.2302 358.084 74.96L358.076 74.9411L336.083 62.2446C330.542 59.0444 329.121 53.026 329.879 48.3079C330.643 43.5607 333.72 38.6773 339.028 36.377L420.284 1.16866Z" fill="var(--fill-0, white)" fill-opacity="0.12"/>
</g>
</svg>
