<svg preserveAspectRatio="none" width="100%" height="100%" overflow="visible" style="display: block;" viewBox="0 0 240.001 55.548" fill="none" xmlns="http://www.w3.org/2000/svg">
<path id="Union" d="M30.8003 7.45958C32.8092 6.58933 34.8655 7.23589 35.9976 8.8004C37.0757 10.2918 37.1455 12.3449 36.1323 14.1002L26.937 30.0231C26.8143 30.2359 26.8067 30.4212 26.8228 30.5113L34.1714 34.7584C36.0225 35.8271 36.4966 37.8359 36.2437 39.4117C35.9887 40.9975 34.9632 42.6297 33.19 43.3981L6.04836 55.1578C4.03959 56.0282 1.98633 55.3822 0.854025 53.818C-0.225202 52.3265 -0.294266 50.2732 0.719259 48.5172L9.91262 32.5924C10.0348 32.3801 10.041 32.1961 10.0249 32.1061L10.022 32.1012L2.67629 27.859C0.825291 26.7898 0.351584 24.7778 0.605002 23.2018C0.860397 21.6165 1.8881 19.9875 3.66067 19.2193L30.8003 7.45958ZM67.1626 0.390248C69.1715 -0.480253 71.2266 0.165823 72.3589 1.73009C73.4377 3.22144 73.5068 5.27518 72.4937 7.03087L63.3013 22.9557C63.1788 23.1683 63.17 23.3519 63.1861 23.442L70.5357 27.6881C72.3865 28.7571 72.8592 30.7695 72.606 32.3453C72.3506 33.9303 71.3263 35.5604 69.5542 36.3287L42.4107 48.0885C40.4019 48.9587 38.3485 48.3121 37.2163 46.7477C36.1376 45.2562 36.0681 43.2036 37.0816 41.4479L46.2759 25.525C46.3988 25.3122 46.4043 25.127 46.3882 25.0367L46.3853 25.0309L39.0396 20.7897C37.1889 19.7208 36.7143 17.7103 36.9673 16.1344C37.2226 14.549 38.2503 12.9183 40.023 12.15L67.1626 0.390248ZM157.311 21.8658C163.033 21.8659 167.675 26.6674 167.675 32.6295C167.675 38.5516 163.033 43.3941 157.311 43.3942H152.99C147.268 43.3942 142.626 38.5517 142.626 32.6295C142.626 26.6673 147.268 21.8658 152.99 21.8658H157.311ZM172.794 21.8658C178.517 21.8659 183.158 26.6674 183.158 32.6295C183.157 38.5515 178.516 43.394 172.794 43.3942H168.472C167.933 43.3941 167.403 43.3505 166.886 43.2672C166.108 43.1418 165.929 42.1667 166.472 41.5963C167.346 40.6791 168.088 39.6261 168.664 38.4703C168.762 38.272 168.976 38.1565 169.197 38.1754C169.898 38.2359 170.614 38.191 171.313 38.191C174.274 38.191 176.676 35.7104 176.676 32.6295C176.676 29.5484 174.274 27.0279 171.313 27.0279C170.611 27.0279 169.891 26.9813 169.188 27.0436C168.967 27.0632 168.752 26.9484 168.653 26.7496C168.082 25.6071 167.349 24.5664 166.487 23.6598C165.943 23.0875 166.125 22.1106 166.905 21.9879C167.416 21.9075 167.939 21.8659 168.472 21.8658H172.794ZM229.636 21.8658C235.358 21.866 240 26.6673 240.001 32.6295C240.001 38.5518 235.358 43.394 229.636 43.3942H225.314C219.592 43.394 214.951 38.5517 214.951 32.6295C214.951 26.6674 219.592 21.866 225.314 21.8658H229.636ZM132.064 14.7027C136.466 14.7027 140.068 18.304 140.068 22.7057V42.9938C136.687 42.9938 133.945 40.2529 133.945 36.8717V23.026C133.945 21.7855 132.984 20.7848 131.744 20.7848C130.704 20.785 129.784 21.5454 129.584 22.5455L126.352 32.4254C125.773 34.195 124.122 35.3922 122.26 35.3922C120.398 35.3921 118.747 34.195 118.168 32.4254L114.938 22.5455C114.698 21.5453 113.817 20.7849 112.777 20.7848C111.536 20.7848 110.536 21.7855 110.536 23.026V42.9938C107.177 42.9937 104.454 40.2708 104.454 36.9117V22.7057C104.454 18.304 108.015 14.7028 112.457 14.7027C116.178 14.7027 119.419 17.3037 120.259 20.9449L122.136 28.7838C122.168 28.9146 122.354 28.9147 122.385 28.7838L124.261 20.9449C125.102 17.3037 128.343 14.7029 132.064 14.7027ZM194.378 22.2262H202.982C202.982 24.9884 200.742 27.2281 197.98 27.2281H194.378V32.8697C194.378 35.6708 196.699 37.9518 199.501 37.9518H202.982V42.9938H198.66C192.938 42.9935 188.296 38.3516 188.296 32.6295V27.2281H184.415V22.2262H188.296V15.1031H194.378V22.2262ZM212.068 42.9938H205.986V28.3082C205.986 24.9491 208.709 22.2264 212.068 22.2262V42.9938ZM154.47 27.0279C151.509 27.0279 149.108 29.5485 149.108 32.6295C149.108 35.7105 151.509 38.192 154.47 38.192H156.191C159.152 38.1918 161.593 35.7104 161.593 32.6295C161.593 29.5486 159.152 27.0282 156.191 27.0279H154.47ZM226.435 27.0279C223.474 27.0279 221.033 29.5484 221.033 32.6295C221.033 35.7107 223.474 38.192 226.435 38.192H228.156C231.117 38.1918 233.517 35.7106 233.517 32.6295C233.517 29.5485 231.117 27.0281 228.156 27.0279H226.435ZM211.691 12.2399C212.133 12.0482 212.586 12.1903 212.835 12.5348C213.073 12.8631 213.088 13.3152 212.865 13.7018L210.841 17.2086C210.815 17.2552 210.812 17.2951 210.816 17.3151L212.434 18.2506C212.841 18.486 212.946 18.9291 212.89 19.276C212.834 19.625 212.608 19.9838 212.217 20.1529L206.241 22.7428C205.799 22.9341 205.346 22.7913 205.097 22.4469C204.86 22.1185 204.845 21.6664 205.068 21.2799L207.092 17.774C207.119 17.7272 207.12 17.6865 207.117 17.6666V17.6656L205.499 16.732C205.091 16.4967 204.987 16.0536 205.043 15.7067C205.099 15.3575 205.325 14.9979 205.715 14.8287L211.691 12.2399Z" fill="var(--fill-0, white)"/>
</svg>
